<svg xmlns="http://www.w3.org/2000/svg" xmlns:xlink="http://www.w3.org/1999/xlink" version="1.1" x="0px" y="0px" viewBox="0 0 60 60" style="enable-background:new 0 0 60 60;" xml:space="preserve"><g><g><path d="M36,36c1.5-1.5,2.7-3.3,3.4-5.3c0.4-1-0.2-2.2-1.2-2.6c-1-0.4-2.2,0.2-2.6,1.2c-0.5,1.4-1.3,2.7-2.4,3.8    c-4,4-10.5,4-14.5,0L10,24.5c-1.9-1.9-3-4.5-3-7.3s1.1-5.3,3-7.3s4.5-3,7.3-3c2.7,0,5.3,1.1,7.3,3l8.1,8.1c0.8,0.8,2,0.8,2.8,0    c0.8-0.8,0.8-2,0-2.8l-8.1-8.1C24.7,4.5,21.1,3,17.3,3C13.5,3,9.9,4.5,7.2,7.2C4.5,9.9,3,13.5,3,17.3s1.5,7.4,4.2,10.1l8.7,8.7    c2.8,2.8,6.4,4.2,10.1,4.2S33.2,38.8,36,36z"/><path d="M44.2,24c-5.6-5.6-14.6-5.6-20.2,0c-1.5,1.5-2.7,3.3-3.4,5.3c-0.4,1,0.2,2.2,1.2,2.6c1,0.4,2.2-0.2,2.6-1.2    c0.5-1.4,1.3-2.7,2.4-3.8c4-4,10.5-4,14.5,0l8.7,8.7c4,4,4,10.5,0,14.5c-4,4-10.5,4-14.5,0l-8.1-8.1c-0.8-0.8-2-0.8-2.8,0    s-0.8,2,0,2.8l8.1,8.1c2.8,2.8,6.4,4.2,10.1,4.2c3.7,0,7.3-1.4,10.1-4.2c5.6-5.6,5.6-14.6,0-20.2L44.2,24z"/></g></g></svg>